# xmcd CD database file
#
# Track frame offsets:
#	150
#	31962
#	74292
#	98795
#	116607
#	131977
#	162355
#	200012
#	217750
#	247167
#	268220
#	304022
#
# Disc length: 4417 seconds
#
# Revision: 0
# Processed by: cddbd v1.5.2PL0 Copyright (c) Steve Scherf et al.
# Submitted via: CDex 1.51
#
DISCID=b4113f0c
DTITLE=JazzPianist - JazzPianist
DYEAR=1985
DGENRE=Jazz
TTITLE0=01)WaltzForDebby-BillEvans
TTITLE1=02)CoolStruttin'SonyClark
TTITLE2=03)TakeFive-DaveBluebeck
TTITLE3=04)GalotaDeIpanema-OscarPeterson
TTITLE4=05)Body&Soul-BudPowel
TTITLE5=06)NoProblem-DukeJordan
TTITLE6=07)C JamBlues-RedGarland
TTITLE7=08)'RoundMidnight-ReyBraiant
TTITLE8=09)Softly,AsIn a MorningSunrise-WingtonKelly
TTITLE9=10)TakingAChanceOnLove-KenyDrew
TTITLE10=11)MaidenVoyage-HabieHancock
TTITLE11=12)LeftAlone-MalWoldlone
EXTD=YEAR: 1985
EXTT0=
EXTT1=
EXTT2=
EXTT3=
EXTT4=
EXTT5=
EXTT6=
EXTT7=
EXTT8=
EXTT9=
EXTT10=
EXTT11=
PLAYORDER=
